<svg width="52" height="68" viewBox="0 0 52 68" fill="none" xmlns="http://www.w3.org/2000/svg">
<path fill-rule="evenodd" clip-rule="evenodd" d="M11.1615 24.7741C42.2362 24.6649 45.9234 24.6534 11.1615 24.7741V24.7741ZM39.6009 42.7792C39.0807 44.3083 37.4973 46.056 36.6112 47.9703L14.5971 48.0335C11.3673 42.7274 11.0357 41.4397 7.07991 35.4783C5.73082 33.4432 5.8623 32.1957 2.71252 32.8856C0.917547 35.9554 3.13554 36.7372 6.50826 42.2273C7.51436 43.8599 8.40041 45.1419 9.28075 46.8435C10.184 48.5854 10.7728 50.6664 11.836 52.0461C14.0826 52.5348 36.5541 52.4945 39.0464 52.0461C40.5956 49.7639 41.859 47.6139 43.5968 45.3604C44.923 43.6415 48.0956 40.5659 45.769 38.9505C45.1631 38.6171 43.9855 38.4274 42.482 38.3239L42.9565 38.3584C42.0133 39.8875 40.7385 41.2328 39.6067 42.7734L39.6009 42.7792ZM10.2125 29.0971C12.9221 40.4854 19.9248 42.5147 27.8936 42.7792C20.1363 42.4975 13.2766 40.5256 10.4355 29.9882C10.3726 29.5858 10.3097 29.1719 10.2583 28.7465C10.1782 28.1486 10.0639 27.5335 10.0525 26.8781C10.0468 26.1653 10.0868 25.4639 10.1782 24.7798L4.3017 24.8028C4.93623 4.55574 30.889 -2.88889 42.9394 12.581C49.3418 20.8017 46.6093 28.7062 47.8098 30.3446C53.1604 33.6961 51.8342 23.7221 51.1482 20.3878C46.6951 -1.13552 17.7354 -7.9708 4.33028 11.4255C2.29522 14.3688 0.631723 18.416 0.13439 22.9632C-0.797396 31.4886 3.17555 28.666 10.2068 29.1029L10.2125 29.0971Z" fill="#B8181D"/>
<path fill-rule="evenodd" clip-rule="evenodd" d="M10.4412 29.9882C14.6771 45.6995 27.8479 42.3767 39.601 42.7791C40.7328 41.2385 42.0076 39.8933 42.9508 38.3641C38.0404 37.9445 28.974 38.6516 25.647 38.4906C20.2164 38.2262 14.9801 34.2365 14.7914 29.3041C22.1142 28.5165 30.1002 29.2351 39.6581 28.8557C41.716 28.7752 41.6303 27.7749 41.636 25.6306C41.6532 18.9966 35.1307 12.8109 29.6486 11.5289C20.9367 9.48813 13.0879 15.0185 11.2129 21.4628H15.8261C21.4569 11.9544 35.1192 13.9664 37.1371 24.6821L10.0639 24.7798C9.8524 26.4125 10.0525 28.39 10.4526 29.9939" fill="white"/>
<path fill-rule="evenodd" clip-rule="evenodd" d="M17.1581 55.6046H34.1303C35.285 55.6046 36.2282 56.5532 36.2282 57.7144C36.2282 58.8756 35.285 59.8242 34.1303 59.8242H17.1581C16.0033 59.8242 15.0601 58.8756 15.0601 57.7144C15.0601 56.5532 16.0033 55.6046 17.1581 55.6046Z" fill="#B8181D"/>
<path fill-rule="evenodd" clip-rule="evenodd" d="M19.3818 63.1872H31.9066C33.0613 63.1872 34.0045 64.1358 34.0045 65.297C34.0045 66.4583 33.0613 67.4068 31.9066 67.4068H19.3818C18.227 67.4068 17.2838 66.4583 17.2838 65.297C17.2838 64.1358 18.227 63.1872 19.3818 63.1872Z" fill="#B8181D"/>
</svg>
