<svg width="216" height="68" viewBox="0 0 216 68" fill="none" xmlns="http://www.w3.org/2000/svg">
<path d="M116.882 22.5781C117.002 21.1466 117.98 20.1291 119.723 20.1291C121.227 20.1291 122.238 21.3134 122.238 22.5781H116.876H116.882ZM127.6 27.3955C126.303 28.0509 123.868 28.5395 121.467 28.5395C119.066 28.5395 117.002 27.6427 116.876 26.2113H128.938C130.156 18.2493 125.851 14.5298 119.803 14.5298C116.756 14.5298 114.321 15.4266 112.492 17.2662C110.662 19.1058 109.771 21.5145 109.771 24.4924C109.771 27.4702 110.788 29.925 112.778 31.7588C114.767 33.5984 117.568 34.4952 121.101 34.4952C124.068 34.4952 126.869 33.6789 128.452 32.8224L127.6 27.3898V27.3955ZM100.03 6.03891V34.0928H107.661V6.03891H100.03ZM89.7116 6.03891V34.0928H97.3431V6.03891H89.7116ZM74.4486 27.7634V23.5553H86.1445V17.1857H74.4486V13.3858H87.4421V7.0162H66.5713V34.087H87.5622V27.7577H74.4486V27.7634Z" fill="white"/>
<path d="M174.133 6.0389V34.0928H181.524V27.4357H183.187L187.532 34.0928H196.507L189.281 24.2107L194.883 14.9437H186.6L183.433 20.8649H181.524V6.0389H174.133ZM167.593 13.2248C170.068 13.2248 171.817 11.5519 171.817 9.05699C171.817 6.56203 170.074 4.80865 167.593 4.80865C165.112 4.80865 163.408 6.48155 163.408 9.05699C163.408 11.6324 165.112 13.2248 167.593 13.2248ZM171.451 14.9437H163.82V34.0928H171.451V14.9437ZM147.7 14.9437V34.0928H155.331V25.5157C155.331 22.5321 156.874 20.8994 159.596 20.8994C160.367 20.8994 161.099 21.0604 161.831 21.3478L162.317 14.8977C161.505 14.6505 160.733 14.5298 160.041 14.5298C157.726 14.5298 155.777 15.6335 154.925 17.5536L154.639 14.9379H147.694L147.7 14.9437ZM144.938 14.9437H139.702V8.81555H132.557V14.9437H129.715V20.9856H132.597V26.7459C132.597 32.4199 136.049 34.5067 140.594 34.5067C142.703 34.5067 144.978 34.0181 146.116 33.4834L145.71 27.522C144.693 27.8496 143.601 28.0106 142.423 28.0106C140.84 28.0106 139.988 27.2748 139.988 25.4812V20.9914H144.944V14.9495L144.938 14.9437Z" fill="white"/>
<path d="M208.483 24.5383C208.483 26.6194 207.145 28.0911 205.15 28.0911C203.155 28.0911 201.737 26.6194 201.737 24.5383C201.737 22.4573 203.161 20.9454 205.15 20.9454C207.139 20.9454 208.483 22.4171 208.483 24.5383ZM203.167 34.5009C205.402 34.5009 207.065 33.7651 208.243 32.3336L208.449 34.087H216V14.9379H208.449L208.243 16.7373C207.065 15.2656 205.362 14.5298 203.167 14.5298C200.691 14.5298 198.616 15.4668 196.993 17.3869C195.369 19.307 194.557 21.6755 194.557 24.5326C194.557 27.3897 195.369 29.7582 196.993 31.6783C198.616 33.5581 200.686 34.4952 203.167 34.4952V34.5009Z" fill="white"/>
<path d="M89.8773 51.4885V66.556H97.5889V39.4851H91.175L82.0801 50.0571L72.9451 39.4851H66.5656V66.556H74.2428V51.4885L81.6742 59.8185H82.526L89.8773 51.4885Z" fill="white"/>
<path d="M144.453 47.4069V66.556H152.084V57.9788C152.084 54.9952 153.628 53.3626 156.349 53.3626C157.12 53.3626 157.852 53.5236 158.584 53.811L159.07 47.3609C158.258 47.1137 157.486 46.993 156.794 46.993C154.479 46.993 152.53 48.0967 151.678 50.0168L151.392 47.4012H144.447L144.453 47.4069ZM134.34 58.0191C134.34 59.324 133.408 60.2266 132.065 60.2266C130.722 60.2266 129.83 59.3298 129.83 58.0191V47.4012H122.278V58.4675C122.278 60.997 123.17 63.0435 124.959 64.6359C126.789 66.1881 129.144 66.9641 132.065 66.9641C134.986 66.9641 137.387 66.1881 139.171 64.6359C141 63.0435 141.892 61.0027 141.892 58.4675V47.4012H134.34V58.0191ZM107.376 54.4261C107.981 53.7305 108.799 53.4029 109.771 53.4029C110.743 53.4029 111.514 53.7305 112.126 54.4261C112.738 55.0815 113.058 55.9381 113.058 57.0016C113.058 58.0651 112.732 58.9217 112.126 59.6172C111.514 60.2726 110.743 60.5945 109.771 60.5945C108.799 60.5945 107.981 60.2669 107.376 59.6172C106.764 58.9217 106.484 58.0651 106.484 57.0016C106.484 55.9381 106.77 55.0815 107.376 54.4261ZM102.179 64.1875C104.129 66.0271 106.644 66.9641 109.771 66.9641C112.898 66.9641 115.413 66.0673 117.322 64.2277C119.271 62.3881 120.243 59.9794 120.243 57.0016C120.243 54.0237 119.271 51.6092 117.322 49.7754C115.413 47.9358 112.898 46.9987 109.771 46.9987C106.644 46.9987 104.129 47.9358 102.179 49.7754C100.27 51.615 99.2981 54.0237 99.2981 57.0016C99.2981 59.9794 100.276 62.3537 102.179 64.1875Z" fill="white"/>
<path d="M172.755 57.0016C172.755 59.0827 171.417 60.5543 169.422 60.5543C167.427 60.5543 166.009 59.0827 166.009 57.0016C166.009 54.9206 167.433 53.4086 169.422 53.4086C171.411 53.4086 172.755 54.8803 172.755 57.0016ZM167.433 66.9642C169.668 66.9642 171.331 66.2284 172.509 64.7969L172.715 66.556H180.266V47.407H172.715L172.509 49.2063C171.331 47.7346 169.628 46.9988 167.433 46.9988C164.958 46.9988 162.882 47.9358 161.259 49.8559C159.636 51.776 158.824 54.1445 158.824 57.0016C158.824 59.8587 159.636 62.2272 161.259 64.1473C162.882 66.0272 164.952 66.9642 167.433 66.9642Z" fill="white"/>
<path fill-rule="evenodd" clip-rule="evenodd" d="M11.1615 24.7741C42.2362 24.6649 45.9234 24.6534 11.1615 24.7741V24.7741ZM39.6009 42.7792C39.0807 44.3083 37.4973 46.056 36.6112 47.9703L14.5971 48.0335C11.3673 42.7274 11.0357 41.4397 7.07991 35.4783C5.73082 33.4432 5.8623 32.1957 2.71252 32.8856C0.917547 35.9554 3.13554 36.7372 6.50826 42.2273C7.51436 43.8599 8.40041 45.1419 9.28075 46.8435C10.184 48.5854 10.7728 50.6664 11.836 52.0461C14.0826 52.5348 36.5541 52.4945 39.0464 52.0461C40.5956 49.7639 41.859 47.6139 43.5968 45.3604C44.923 43.6415 48.0956 40.5659 45.769 38.9505C45.1631 38.6171 43.9855 38.4274 42.482 38.3239L42.9565 38.3584C42.0133 39.8875 40.7385 41.2328 39.6067 42.7734L39.6009 42.7792ZM10.2125 29.0971C12.9221 40.4854 19.9248 42.5147 27.8936 42.7792C20.1363 42.4975 13.2766 40.5256 10.4355 29.9882C10.3726 29.5858 10.3097 29.1719 10.2583 28.7465C10.1782 28.1486 10.0639 27.5335 10.0525 26.8781C10.0468 26.1653 10.0868 25.4639 10.1782 24.7798L4.3017 24.8028C4.93623 4.55574 30.889 -2.88889 42.9394 12.581C49.3418 20.8017 46.6093 28.7062 47.8098 30.3446C53.1604 33.6961 51.8342 23.7221 51.1482 20.3878C46.6951 -1.13552 17.7354 -7.9708 4.33028 11.4255C2.29522 14.3688 0.631723 18.416 0.13439 22.9632C-0.797396 31.4886 3.17555 28.666 10.2068 29.1029L10.2125 29.0971Z" fill="#B8181D"/>
<path fill-rule="evenodd" clip-rule="evenodd" d="M10.4412 29.9882C14.6771 45.6995 27.8479 42.3767 39.601 42.7791C40.7328 41.2385 42.0076 39.8933 42.9508 38.3641C38.0404 37.9445 28.974 38.6516 25.647 38.4906C20.2164 38.2262 14.9801 34.2365 14.7914 29.3041C22.1142 28.5165 30.1002 29.2351 39.6581 28.8557C41.716 28.7752 41.6303 27.7749 41.636 25.6306C41.6532 18.9966 35.1307 12.8109 29.6486 11.5289C20.9367 9.48813 13.0879 15.0185 11.2129 21.4628H15.8261C21.4569 11.9544 35.1192 13.9664 37.1371 24.6821L10.0639 24.7798C9.8524 26.4125 10.0525 28.39 10.4526 29.9939" fill="white"/>
<path fill-rule="evenodd" clip-rule="evenodd" d="M17.1581 55.6046H34.1303C35.285 55.6046 36.2282 56.5532 36.2282 57.7144C36.2282 58.8756 35.285 59.8242 34.1303 59.8242H17.1581C16.0033 59.8242 15.0601 58.8756 15.0601 57.7144C15.0601 56.5532 16.0033 55.6046 17.1581 55.6046Z" fill="#B8181D"/>
<path fill-rule="evenodd" clip-rule="evenodd" d="M19.3818 63.1872H31.9066C33.0613 63.1872 34.0045 64.1358 34.0045 65.297C34.0045 66.4583 33.0613 67.4068 31.9066 67.4068H19.3818C18.227 67.4068 17.2838 66.4583 17.2838 65.297C17.2838 64.1358 18.227 63.1872 19.3818 63.1872Z" fill="#B8181D"/>
</svg>
